<?xml version="1.0" standalone="no"?>
<!DOCTYPE svg PUBLIC "-//W3C//DTD SVG 20010904//EN"
 "http://www.w3.org/TR/2001/REC-SVG-20010904/DTD/svg10.dtd">
<svg version="1.0" xmlns="http://www.w3.org/2000/svg"
 width="968.000000pt" height="130.000000pt" viewBox="0 0 968.000000 130.000000"
 preserveAspectRatio="xMidYMid meet">
<metadata>
Created by potrace 1.16, written by Peter Selinger 2001-2019
</metadata>
<g transform="translate(0.000000,130.000000) scale(0.100000,-0.100000)"
fill="#000000" stroke="none">
<path d="M1435 1254 c-634 -64 -1064 -210 -1249 -425 -103 -121 -107 -264 -10
-378 25 -30 108 -91 123 -91 4 0 4 25 3 55 -7 100 59 175 233 270 410 224
1373 293 2095 150 397 -78 639 -209 686 -371 9 -30 12 -64 8 -80 -7 -27 -5
-26 54 20 126 96 166 201 125 322 -12 37 -35 67 -92 124 -160 159 -406 263
-794 339 -273 53 -389 63 -782 66 -198 2 -378 1 -400 -1z"/>
<path d="M5185 1097 c-134 -45 -196 -141 -182 -288 11 -120 63 -192 255 -353
106 -88 127 -123 119 -195 -7 -59 -41 -91 -98 -91 -55 0 -98 42 -101 97 -1 21
-2 47 -2 58 -1 18 -9 20 -90 23 l-89 3 6 -73 c14 -185 99 -268 272 -268 129 0
226 55 262 148 12 31 18 74 18 127 0 135 -27 175 -258 379 -43 37 -85 79 -94
92 -38 58 -33 149 10 179 34 24 103 20 132 -9 24 -24 43 -102 31 -131 -4 -13
9 -15 86 -15 l91 0 -6 73 c-9 119 -47 186 -132 230 -50 25 -172 33 -230 14z"/>
<path d="M6548 1099 c-31 -5 -75 -17 -97 -28 -49 -26 -104 -90 -119 -140 -19
-61 -16 -696 3 -750 22 -64 62 -108 123 -138 50 -25 68 -28 147 -27 129 1 207
43 258 138 21 40 22 50 22 406 l0 365 -25 45 c-57 100 -172 148 -312 129z
m133 -188 l29 -29 0 -322 0 -322 -29 -29 c-25 -24 -38 -29 -78 -29 -60 0 -89
19 -103 68 -6 21 -10 156 -10 320 0 356 5 371 113 372 41 0 53 -5 78 -29z"/>
<path d="M9217 1093 c-63 -24 -112 -64 -140 -116 -19 -35 -22 -57 -22 -142 0
-85 3 -106 23 -143 33 -61 82 -112 208 -218 126 -105 149 -140 141 -213 -7
-59 -41 -91 -98 -91 -31 0 -47 7 -70 29 -26 26 -29 36 -29 90 l0 61 -91 0 -92
0 5 -80 c6 -108 43 -182 112 -225 46 -28 55 -30 150 -30 141 0 214 33 258 118
31 59 37 195 13 268 -20 58 -75 119 -257 282 -95 85 -116 124 -104 191 14 76
110 103 167 47 25 -26 29 -37 29 -85 l0 -56 85 0 85 0 0 58 c0 115 -45 203
-123 244 -58 30 -184 35 -250 11z"/>
<path d="M4000 558 l0 -533 177 3 c250 4 312 28 364 144 23 51 24 63 27 340 2
168 -1 315 -7 355 -15 95 -51 150 -126 188 -58 30 -60 30 -247 33 l-188 4 0
-534z m357 349 c16 -16 18 -46 21 -329 2 -212 -1 -320 -8 -339 -15 -36 -49
-49 -125 -49 l-65 0 0 371 0 371 80 -4 c59 -2 84 -8 97 -21z"/>
<path d="M4700 558 l0 -533 90 -1 90 -2 0 534 0 534 -90 0 -90 0 0 -532z"/>
<path d="M5677 558 l3 -533 87 0 88 0 0 248 c0 136 2 247 5 247 3 0 48 -102
100 -227 52 -124 100 -235 105 -246 9 -19 20 -21 108 -21 53 -1 97 0 97 1 0 2
-54 128 -120 282 -66 153 -120 283 -120 289 0 5 43 103 96 218 53 115 102 224
110 242 l14 32 -93 0 -93 0 -99 -226 c-55 -124 -102 -227 -105 -229 -3 -2 -4
100 -2 226 l3 229 -93 0 -93 0 2 -532z"/>
<path d="M7023 558 l2 -533 88 0 88 0 -1 255 c0 161 3 251 9 245 5 -6 53 -113
106 -240 53 -126 100 -236 105 -245 13 -22 203 -23 195 0 -4 8 -58 138 -122
288 l-115 273 107 232 c59 128 110 238 112 245 4 9 -18 12 -89 12 l-94 0 -105
-237 -104 -237 -3 237 -2 237 -90 0 -89 0 2 -532z"/>
<path d="M7720 558 l0 -533 87 2 88 1 3 206 2 206 30 0 c17 0 33 -1 38 -2 4
-2 34 -95 68 -207 l61 -204 96 -1 c53 -1 97 1 97 4 0 2 -32 102 -72 222 l-72
217 40 35 c24 20 51 58 65 88 21 47 23 68 23 178 0 110 -2 131 -23 178 -52
116 -118 142 -363 142 l-168 0 0 -532z m343 344 c20 -21 22 -32 22 -142 0
-110 -2 -121 -22 -142 -18 -18 -37 -23 -93 -26 l-70 -4 0 172 0 172 70 -4 c56
-3 75 -8 93 -26z"/>
<path d="M8560 1073 c0 -14 -183 -971 -196 -1028 -5 -19 0 -20 85 -21 l90 -1
10 61 c6 34 13 80 17 103 l7 43 98 0 c55 0 99 -1 100 -2 0 -2 8 -48 17 -103
l18 -100 92 0 c58 0 92 4 92 11 0 5 -27 152 -60 325 -33 172 -76 400 -96 504
-19 105 -37 198 -40 208 -5 15 -19 17 -120 17 -99 0 -114 -2 -114 -17z m153
-481 c19 -111 31 -204 29 -207 -8 -8 -130 -6 -135 3 -2 4 12 104 31 222 20
118 38 208 39 200 2 -8 18 -106 36 -218z"/>
<path d="M1576 734 c-24 -23 -20 -42 34 -178 28 -69 50 -132 50 -139 0 -23
-19 -33 -115 -62 -49 -14 -105 -35 -123 -46 -18 -10 -41 -19 -51 -19 -41 0
-296 96 -442 167 l-156 75 -134 -66 c-133 -66 -183 -104 -177 -134 7 -36 331
-145 578 -195 701 -142 1530 -79 2065 158 97 43 73 73 -143 180 l-121 59 -123
-61 c-119 -60 -251 -115 -391 -163 -61 -22 -71 -23 -100 -10 -18 7 -81 30
-142 50 -100 34 -110 39 -113 63 -2 14 19 84 47 154 51 127 51 128 32 153
l-18 25 -221 3 c-190 2 -222 0 -236 -14z"/>
</g>
</svg>











